<?xml version="1.0" encoding="UTF-8" standalone="no"?>
<!-- Created with Inkscape (http://www.inkscape.org/) -->

<svg
   width="2119.9514"
   height="270.59308"
   viewBox="0 0 560.90381 71.594421"
   version="1.1"
   id="svg5"
   inkscape:version="1.1.2 (0a00cf5339, 2022-02-04, custom)"
   sodipodi:docname="hor_text.svg"
   inkscape:export-filename="C:\Users\drbon\Pictures\PG_Assets\logo\logo.png"
   inkscape:export-xdpi="121.158"
   inkscape:export-ydpi="121.158"
   xmlns:inkscape="http://www.inkscape.org/namespaces/inkscape"
   xmlns:sodipodi="http://sodipodi.sourceforge.net/DTD/sodipodi-0.dtd"
   xmlns="http://www.w3.org/2000/svg"
   xmlns:svg="http://www.w3.org/2000/svg">
  <sodipodi:namedview
     id="namedview7"
     pagecolor="#ffffff"
     bordercolor="#cccccc"
     borderopacity="1"
     inkscape:pageshadow="0"
     inkscape:pageopacity="0"
     inkscape:pagecheckerboard="0"
     inkscape:document-units="mm"
     showgrid="false"
     units="px"
     fit-margin-top="25"
     fit-margin-right="0"
     fit-margin-bottom="0"
     fit-margin-left="0"
     inkscape:zoom="0.58457336"
     inkscape:cx="1124.7519"
     inkscape:cy="265.15064"
     inkscape:window-width="2560"
     inkscape:window-height="1369"
     inkscape:window-x="-8"
     inkscape:window-y="-8"
     inkscape:window-maximized="1"
     inkscape:current-layer="text26196"
     lock-margins="false" />
  <defs
     id="defs2" />
  <g
     inkscape:label="Layer 1"
     inkscape:groupmode="layer"
     id="layer1"
     transform="translate(-11.943372,-162.45381)">
    <text
       xml:space="preserve"
       style="font-weight:bold;font-size:16.9333px;line-height:1.25;font-family:'Clash Display Variable';-inkscape-font-specification:'Clash Display Variable Bold';text-align:start;text-anchor:start;stroke-width:0.264583"
       x="223.76115"
       y="108.60316"
       id="text12448"><tspan
         sodipodi:role="line"
         id="tspan12446"
         style="text-align:start;text-anchor:start;stroke-width:0.264583"
         x="223.76115"
         y="108.60316" /></text>
    <rect
       style="fill:#3e0099;fill-opacity:1;fill-rule:evenodd;stroke:none;stroke-width:9.15285;stroke-miterlimit:4;stroke-dasharray:none;stroke-opacity:1;paint-order:markers stroke fill"
       id="rect32893-5-1"
       width="19.4622"
       height="15.501865"
       x="500.98434"
       y="194.08975" />
    <rect
       style="fill:#3e0099;fill-opacity:1;fill-rule:evenodd;stroke:none;stroke-width:8.23606;stroke-miterlimit:4;stroke-dasharray:none;stroke-opacity:1;paint-order:markers stroke fill"
       id="rect32893-9"
       width="20.367418"
       height="11.994145"
       x="374.93268"
       y="196.86198" />
    <rect
       style="fill:#3e0099;fill-opacity:1;fill-rule:evenodd;stroke:none;stroke-width:8.23606;stroke-miterlimit:4;stroke-dasharray:none;stroke-opacity:1;paint-order:markers stroke fill"
       id="rect32893"
       width="20.367418"
       height="11.994145"
       x="101.01324"
       y="195.20894"
       inkscape:label="rect32893" />
    <rect
       style="fill:#3e0099;fill-opacity:1;fill-rule:evenodd;stroke:none;stroke-width:8.23606;stroke-miterlimit:4;stroke-dasharray:none;stroke-opacity:1;paint-order:markers stroke fill"
       id="rect32893-7"
       width="20.367418"
       height="11.994145"
       x="26.087412"
       y="184.17905"
       inkscape:label="rect32893" />
    <g
       aria-label="Proving Grounds"
       id="text26196"
       style="font-weight:bold;font-size:63.6126px;line-height:1.25;font-family:'Clash Display Variable';-inkscape-font-specification:'Clash Display Variable Bold';fill:#ffe80a;stroke:none;stroke-width:10.273;stroke-linecap:round;stroke-linejoin:round;stroke-miterlimit:2.3;paint-order:markers stroke fill"
       inkscape:label="text26196">
      <path
         id="path1362"
         style="stroke:#3e0099;stroke-width:10.273;stroke-miterlimit:2.3;stroke-dasharray:none;stroke-opacity:1"
         d="m 551.10777,218.09758 q -8.46048,0 -12.91336,-3.11702 -4.45288,-3.11701 -4.45288,-8.65131 v -0.25445 h 11.95916 v 0.63613 q 0,1.33586 1.08142,1.65392 1.14503,0.31807 4.38927,0.31807 3.11701,0 3.94398,-0.31807 0.82696,-0.38167 0.82696,-1.20863 0,-0.76336 -0.63612,-1.01781 -0.63613,-0.31806 -2.86257,-0.57251 l -9.28744,-1.0178 q -4.96178,-0.5089 -7.5699,-2.79896 -2.60812,-2.35366 -2.60812,-6.42487 0,-2.86256 1.59032,-5.21623 1.65393,-2.41728 5.27985,-3.88037 3.68953,-1.46309 9.66911,-1.46309 5.59791,0 9.35105,1.33587 3.81676,1.33586 5.72514,4.00759 1.97199,2.60812 1.97199,6.5521 v 0.25445 h -11.95917 v -0.38168 q 0,-0.82696 -0.38168,-1.33586 -0.31806,-0.57252 -1.5267,-0.82697 -1.14503,-0.25445 -3.56231,-0.25445 -2.92618,0 -3.68953,0.44529 -0.69973,0.38168 -0.69973,1.27225 0,0.63613 0.69973,1.0178 0.76335,0.38168 3.56231,0.69974 l 6.36126,0.69974 q 6.99738,0.76335 9.66911,3.11702 2.67173,2.35367 2.67173,6.42487 0,2.98979 -1.97199,5.34346 -1.90838,2.29005 -5.59791,3.62592 -3.68953,1.33586 -9.03298,1.33586 z m -45.22859,0 q -4.89817,0 -8.33325,-1.97199 -3.37147,-2.0356 -5.15262,-5.78874 -1.71754,-3.75315 -1.71754,-8.90577 0,-5.21623 1.71754,-8.90576 1.71754,-3.75315 4.96178,-5.72514 3.30786,-2.0356 8.01519,-2.0356 5.66152,0 8.52409,2.48089 2.86257,2.41728 3.5623,6.42487 h 1.84477 v 7.37907 h -1.20864 q 0,-3.37147 -1.97199,-4.38927 -1.90838,-1.0178 -5.91597,-1.0178 -2.73534,0 -4.38927,0.57251 -1.65393,0.57251 -2.35367,1.84476 -0.69974,1.20864 -0.69974,3.37147 0,2.09922 0.69974,3.37147 0.69974,1.27225 2.35367,1.84476 1.65393,0.50891 4.38927,0.50891 2.67173,0 4.38927,-0.44529 1.78115,-0.44529 2.60811,-1.65393 0.89058,-1.27225 0.89058,-3.56231 h 1.20864 l 0.89058,7.31545 h -1.97199 q -0.76336,4.77095 -3.75315,7.061 -2.92618,2.22644 -8.5877,2.22644 z m 24.17279,-0.63612 h -11.19582 v -9.03299 l -0.76335,-0.82697 v -32.76048 h 11.95917 z m -42.30234,0 h -11.95917 v -16.1576 q 0,-3.37147 -1.46309,-4.58011 -1.46309,-1.27225 -5.40707,-1.27225 -3.94398,0 -5.27985,1.20864 -1.27225,1.14502 -1.27225,4.26204 h -1.20864 l -1.0178,-5.78875 h 2.09922 q 0.38167,-2.67172 1.71754,-5.02539 1.39947,-2.35367 4.0712,-3.81676 2.73535,-1.5267 6.99739,-1.5267 4.32566,0 7.12461,1.59032 2.86257,1.59031 4.19843,4.32565 1.39948,2.73534 1.39948,6.23404 z m -25.38143,0 h -11.95917 v -32.06075 h 11.19582 v 9.85995 l 0.76335,0.31806 z m -40.33039,0.63612 q -4.45288,0 -7.37906,-1.59031 -2.92618,-1.59032 -4.38927,-4.32566 -1.39948,-2.73534 -1.39948,-6.23403 v -20.54687 h 11.95917 v 16.1576 q 0,3.30785 1.5267,4.5801 1.59032,1.27226 5.66152,1.27226 4.13482,0 5.47069,-1.14503 1.39947,-1.20864 1.39947,-4.32566 h 1.20864 l 1.01781,5.78875 h -2.09922 q -0.31806,2.67173 -1.71754,5.02539 -1.39948,2.35367 -4.13482,3.88037 -2.73534,1.46309 -7.12461,1.46309 z m 24.80891,-0.63612 h -11.19581 v -9.85996 l -0.76336,-0.31806 v -21.88273 h 11.95917 z m -59.54139,0.63612 q -5.5343,0 -9.79634,-1.97199 -4.19844,-2.0356 -6.5521,-5.78874 -2.35367,-3.75315 -2.35367,-8.90577 0,-5.21623 2.35367,-8.90576 2.35366,-3.75315 6.5521,-5.72514 4.26204,-2.0356 9.79634,-2.0356 5.5979,0 9.79634,2.0356 4.19843,1.97199 6.55209,5.72514 2.35367,3.68953 2.35367,8.90576 0,5.15262 -2.35367,8.90577 -2.35366,3.75314 -6.55209,5.78874 -4.19844,1.97199 -9.79634,1.97199 z m 0,-10.55969 q 4.0712,0 5.47068,-1.27225 1.39948,-1.33587 1.39948,-4.83456 0,-3.49869 -1.39948,-4.83456 -1.39948,-1.33586 -5.47068,-1.33586 -4.07121,0 -5.47069,1.33586 -1.39948,1.33587 -1.39948,4.83456 0,3.49869 1.39948,4.83456 1.39948,1.27225 5.47069,1.27225 z m -40.58489,9.92357 h -11.95917 v -32.06075 h 11.19582 v 9.16021 l 0.76335,0.31806 z m 0,-19.1474 H 344.494 v -4.51649 h 2.09921 q 0.44529,-2.67173 1.71754,-4.70733 1.27225,-2.03561 3.43508,-3.18063 2.22644,-1.14503 5.40707,-1.14503 3.56231,0 5.72514,1.46309 2.16282,1.39948 3.11701,3.88037 1.01781,2.48089 1.01781,5.72513 v 6.36126 h -11.95917 v -3.75314 q 0,-2.0356 -0.89058,-2.79895 -0.89058,-0.82697 -3.24424,-0.82697 -2.41728,0 -3.30786,0.82697 -0.89057,0.76335 -0.89057,2.67172 z m -42.04797,19.78352 q -6.67932,0 -11.45027,-2.67173 -4.77094,-2.73534 -7.31545,-7.63351 -2.48089,-4.96178 -2.48089,-11.6411 0,-6.67933 2.92618,-11.5775 2.92618,-4.96178 8.46048,-7.63351 5.53429,-2.73534 13.29503,-2.73534 7.25184,0 12.40446,2.0356 5.15262,2.03561 7.88796,5.85236 2.73534,3.75314 2.73534,9.03299 v 0.44529 h -13.35864 v -0.44529 q 0,-2.98979 -2.16283,-4.19843 -2.16283,-1.27225 -7.82435,-1.27225 -4.58011,0 -7.12461,0.89057 -2.48089,0.82697 -3.4987,3.11702 -1.0178,2.22644 -1.0178,6.48849 0,4.19843 0.95419,6.48848 0.95419,2.29005 3.30786,3.18063 2.41727,0.82696 6.74293,0.82696 5.15262,0 7.76074,-0.31806 2.60811,-0.38167 3.43508,-1.5267 0.89058,-1.20864 0.89058,-3.68953 v -2.35367 l 11.95916,-0.25445 v 0.89058 l -10.36885,8.96937 h -1.39948 q -0.57251,2.4809 -2.16283,4.70734 -1.5267,2.22644 -4.5801,3.62592 -2.98979,1.39947 -8.01519,1.39947 z m 26.52645,-0.63612 h -11.1322 v -12.15001 l -0.82696,-1.33586 v -9.22383 h 11.95916 z m 0,-14.50368 h -25.19059 v -8.77853 h 25.19059 z m -79.00684,25.95394 q -5.59791,0 -9.54189,-1.5267 -3.94398,-1.5267 -6.0432,-4.45288 -2.09921,-2.92618 -2.09921,-7.12461 h 11.95917 q 0,1.27225 0.31806,1.97199 0.38168,0.76335 1.71754,1.0178 1.39948,0.25445 4.51649,0.25445 2.60812,0 3.94399,-0.44529 1.39947,-0.38167 1.90837,-1.71754 0.5089,-1.33586 0.5089,-4.00759 v -19.59268 h 0.76336 v -7.88796 h 11.19581 v 26.65368 q 0,5.72513 -2.22644,9.41466 -2.22644,3.75314 -6.48848,5.59791 -4.26205,1.84476 -10.43247,1.84476 z m -4.70733,-15.01257 q -4.77095,0 -8.0788,-1.71754 -3.30786,-1.78115 -5.08901,-5.02539 -1.71754,-3.30786 -1.71754,-7.88797 0,-4.51649 1.78115,-7.76073 1.84477,-3.24425 5.27985,-4.96179 3.43508,-1.78115 8.14241,-1.78115 4.89817,0 7.95158,2.0356 3.11701,1.97199 3.75314,6.10681 h 1.97199 l -0.89058,6.29765 h -1.20864 q 0,-1.71754 -0.82696,-2.60812 -0.76335,-0.89057 -2.41728,-1.20864 -1.65393,-0.31806 -4.32565,-0.31806 -2.79896,0 -4.38927,0.44529 -1.52671,0.38168 -2.16283,1.27225 -0.57252,0.89058 -0.57252,2.48089 0,1.59032 0.57252,2.54451 0.63612,0.95419 2.16283,1.39947 1.59031,0.44529 4.38927,0.44529 4.00759,0 5.78874,-0.69974 1.78115,-0.76335 1.78115,-3.30785 h 1.20864 v 6.48848 h -1.84476 q -0.63613,3.4987 -3.30786,5.66153 -2.67173,2.09921 -7.95157,2.09921 z m -17.81151,3.56231 h -11.95916 v -16.1576 q 0,-3.37147 -1.46309,-4.58011 -1.46309,-1.27225 -5.40708,-1.27225 -3.94398,0 -5.27984,1.20864 -1.27225,1.14502 -1.27225,4.26204 h -1.20864 l -1.0178,-5.78875 h 2.09921 q 0.38168,-2.67172 1.71754,-5.02539 1.39948,-2.35367 4.07121,-3.81676 2.73534,-1.5267 6.99738,-1.5267 4.32566,0 7.12462,1.59032 2.86256,1.59031 4.19843,4.32565 1.39947,2.73534 1.39947,6.23404 z m -25.38142,0 h -11.95917 v -32.06075 h 11.19582 v 9.85995 l 0.76335,0.31806 z m -15.77588,0 h -11.95917 v -32.06075 h 11.95917 z m 0,-34.98693 h -11.95917 v -7.63351 h 11.95917 z m -27.92599,34.98693 h -14.75812 l -14.24922,-32.06075 h 13.35865 l 8.01518,20.41964 h 0.82697 l 8.0788,-20.41964 h 13.10419 z m -48.34557,0.63612 q -5.53429,0 -9.79634,-1.97199 -4.19843,-2.0356 -6.552096,-5.78874 -2.353666,-3.75315 -2.353666,-8.90577 0,-5.21623 2.353666,-8.90576 2.353666,-3.75315 6.552096,-5.72514 4.26205,-2.0356 9.79634,-2.0356 5.59791,0 9.79634,2.0356 4.19843,1.97199 6.5521,5.72514 2.35367,3.68953 2.35367,8.90576 0,5.15262 -2.35367,8.90577 -2.35367,3.75314 -6.5521,5.78874 -4.19843,1.97199 -9.79634,1.97199 z m 0,-10.55969 q 4.07121,0 5.47069,-1.27225 1.39947,-1.33587 1.39947,-4.83456 0,-3.49869 -1.39947,-4.83456 -1.39948,-1.33586 -5.47069,-1.33586 -4.0712,0 -5.47068,1.33586 -1.39948,1.33587 -1.39948,4.83456 0,3.49869 1.39948,4.83456 1.39948,1.27225 5.47068,1.27225 z m -40.584895,9.92357 H 59.700317 v -32.06075 h 11.195817 v 9.16021 l 0.763351,0.31806 z m 0,-19.1474 h -2.226441 v -4.51649 h 2.099216 q 0.445288,-2.67173 1.71754,-4.70733 1.272252,-2.03561 3.435081,-3.18063 2.22644,-1.14503 5.40707,-1.14503 3.562306,0 5.725134,1.46309 2.162829,1.39948 3.117018,3.88037 1.017801,2.48089 1.017801,5.72513 v 6.36126 H 79.992736 v -3.75314 q 0,-2.0356 -0.890577,-2.79895 -0.890576,-0.82697 -3.244242,-0.82697 -2.417279,0 -3.307855,0.82697 -0.890577,0.76335 -0.890577,2.67172 z m -30.97934,8.39687 H 21.087465 V 195.9604 h 18.256816 q 3.18063,0 4.516494,-0.95419 1.399478,-0.95419 1.399478,-4.26205 0,-3.24424 -1.399478,-4.19843 -1.335864,-0.95419 -4.516494,-0.95419 H 21.087465 v -10.75052 h 19.59268 q 5.089008,0 8.778539,1.90837 3.689531,1.84477 5.661521,5.40707 2.035603,3.4987 2.035603,8.5877 0,5.0254 -2.035603,8.65132 -1.97199,3.5623 -5.661521,5.47068 -3.689531,1.84477 -8.778539,1.84477 z M 29.03904,217.46146 H 17.079871 V 174.84102 H 29.03904 Z" />
    </g>
  </g>
</svg>
